HIERARCHY
ROOT Hips
{
	OFFSET -3.958830 18.904000 13.208200
	CHANNELS 6 Xposition Yposition Zposition Zrotation Yrotation Xrotation 
	JOINT LHipJoint
	{
		OFFSET 0.000000 0.000000 0.000000
		CHANNELS 3 Zrotation Yrotation Xrotation
		JOINT LeftUpLeg
		{
			OFFSET 1.800000 -1.400000 0.085000
			CHANNELS 3 Zrotation Yrotation Xrotation
			JOINT LeftLeg
			{
				OFFSET 2.215000 -6.000000 0.000000
				CHANNELS 3 Zrotation Yrotation Xrotation
				JOINT LeftFoot
				{
					OFFSET 2.500000 -6.900000 0.000000
					CHANNELS 3 Zrotation Yrotation Xrotation
					JOINT LeftToeBase
					{
						OFFSET 0.200000 -0.500000 1.950000
						CHANNELS 3 Zrotation Yrotation Xrotation
						End Site
						{
							OFFSET 0.000000 0.000000 0.000000
						}
					}
				}
			}
		}
	}
	JOINT RHipJoint
	{
		OFFSET 0.000000 0.000000 0.000000
		CHANNELS 3 Zrotation Yrotation Xrotation
		JOINT RightUpLeg
		{
			OFFSET -1.800000 -1.400000 0.085000
			CHANNELS 3 Zrotation Yrotation Xrotation
			JOINT RightLeg
			{
				OFFSET -2.215000 -6.000000 0.000000
				CHANNELS 3 Zrotation Yrotation Xrotation
				JOINT RightFoot
				{
					OFFSET -2.500000 -6.900000 0.000000
					CHANNELS 3 Zrotation Yrotation Xrotation
					JOINT RightToeBase
					{
						OFFSET -0.200000 -0.500000 1.950000
						CHANNELS 3 Zrotation Yrotation Xrotation
						End Site
						{
							OFFSET 0.000000 0.000000 0.000000
						}
					}
				}
			}
		}
	}
	JOINT LowerBack
	{
		OFFSET 0.000000 0.000000 0.000000
		CHANNELS 3 Zrotation Yrotation Xrotation
		JOINT Spine
		{
			OFFSET -0.087000 1.940000 -0.288900
			CHANNELS 3 Zrotation Yrotation Xrotation
			JOINT Spine1
			{
				OFFSET 0.000000 1.950000 0.060000
				CHANNELS 3 Zrotation Yrotation Xrotation
				JOINT Neck
				{
					OFFSET 0.000000 0.000000 0.000000
					CHANNELS 3 Zrotation Yrotation Xrotation
					JOINT Neck1
					{
						OFFSET 0.000000 1.600000 0.340000
						CHANNELS 3 Zrotation Yrotation Xrotation
						JOINT Head
						{
							OFFSET 0.000000 1.667000 -0.240000
							CHANNELS 3 Zrotation Yrotation Xrotation
							End Site
							{
								OFFSET 0.000000 0.000000 0.000000
							}
						}
					}
				}
				JOINT LeftShoulder
				{
					OFFSET 0.000000 0.000000 0.000000
					CHANNELS 3 Zrotation Yrotation Xrotation
					JOINT LeftArm
					{
						OFFSET 2.700000 1.550000 -0.730000
						CHANNELS 3 Zrotation Yrotation Xrotation
						JOINT LeftForeArm
						{
							OFFSET 5.450000 0.000000 0.000000
							CHANNELS 3 Zrotation Yrotation Xrotation
							JOINT LeftHand
							{
								OFFSET 3.450000 0.000000 0.000000
								CHANNELS 3 Zrotation Yrotation Xrotation
								JOINT LeftHandIndex1
								{
									OFFSET 0.750000 0.000000 0.000000
									CHANNELS 3 Zrotation Yrotation Xrotation
									End Site
									{
										OFFSET 0.000000 0.000000 0.000000
									}
								}
							}
						}
					}
				}
				JOINT RightShoulder
				{
					OFFSET 0.000000 0.000000 0.000000
					CHANNELS 3 Zrotation Yrotation Xrotation
					JOINT RightArm
					{
						OFFSET -2.700000 1.550000 -0.730000
						CHANNELS 3 Zrotation Yrotation Xrotation
						JOINT RightForeArm
						{
							OFFSET -5.450000 0.000000 0.000000
							CHANNELS 3 Zrotation Yrotation Xrotation
							JOINT RightHand
							{
								OFFSET -3.450000 0.000000 0.000000
								CHANNELS 3 Zrotation Yrotation Xrotation
								JOINT RightHandIndex1
								{
									OFFSET -0.750000 0.000000 0.000000
									CHANNELS 3 Zrotation Yrotation Xrotation
									End Site
									{
										OFFSET 0.000000 0.000000 0.000000
									}
								}
							}
						}
					}
				}
			}
		}
	}
}
MOTION
Frames: 7
Frame Time: 0.016667
0.233110 16.856200 -3.927430 6.779343 -5.087234 -0.140147 -14.658142 12.790468 2.799000 27.296975 0.075748 -17.784827 -2.780626 6.906345 17.216444 -0.201476 5.180546 2.755555 0.344030 0.191820 -0.026550 18.792933 -11.019238 2.703815 -13.290347 4.469893 -27.445512 4.819300 -11.097914 44.068973 -0.728139 -6.873662 2.038326 0.079950 0.334630 0.128500 -5.014322 -0.301696 -7.347834 32.602239 -16.792655 22.921905 -28.084110 -9.073657 4.358010 9.401192 -15.354410 -9.551980 -31.336239 11.422107 22.836776 -4.927140 0.211830 -11.683240 -15.759467 4.140238 -0.227654 -38.874140 0.627846 -9.583105 16.531820 -46.951417 -8.123094 -3.550052 3.103818 0.291670 0.087190 -0.130180 0.284320 -3.908638 4.503488 6.802463 6.229491 0.647757 -5.294042 -124.331807 47.303815 -85.484444 2.001537 -1.840749 -0.057590 0.284070 0.037730 0.005380 
0.282120 16.829240 -3.884240 6.337767 -4.829737 0.754933 -14.670019 12.885488 2.694068 26.225574 -0.121961 -14.497964 -1.897474 5.726977 11.487066 -0.224570 4.728003 2.979076 0.356720 0.217120 -0.016680 18.757485 -10.940070 2.759457 -12.746882 4.645024 -28.449025 4.040699 -10.913659 44.829323 -0.737235 -6.945536 2.010698 0.105930 0.361080 0.156140 -4.932710 -0.546033 -7.269341 34.641116 -17.282165 20.241638 -28.333965 -9.793719 4.231537 9.966944 -15.369411 -9.127562 -30.689903 11.865206 22.321673 -6.161460 1.787760 -10.323830 -16.489566 3.995320 -0.365884 -38.692611 0.219475 -7.454541 15.704924 -33.998458 -5.338351 -3.686143 3.087944 0.254830 0.137880 -0.139220 0.296240 -4.520340 4.827503 6.338735 4.978487 3.615498 -5.281306 -116.848052 46.185532 -73.009296 1.956342 -1.737467 -0.053000 0.273140 0.028820 0.008410 
0.327990 16.811710 -3.855060 5.721834 -4.620841 1.448051 -14.696240 12.907542 2.721958 25.282528 -0.369664 -11.723242 -1.749301 5.137946 7.523456 -0.211022 4.622001 3.071336 0.366860 0.235390 0.009130 18.723866 -10.843320 2.769824 -11.904235 4.779075 -28.950518 3.403410 -10.623006 45.148306 -0.736620 -6.937605 2.008566 0.127150 0.365540 0.174500 -4.842044 -0.741953 -7.242699 36.239675 -17.420897 18.034703 -27.902155 -10.032589 4.745635 10.432048 -15.190726 -8.891956 -29.611070 11.717768 22.377059 -7.773040 3.158040 -9.556700 -17.704178 2.934986 -0.212309 -37.936235 -0.133654 -5.607233 14.204600 -23.441395 -3.488114 -3.798256 3.066695 0.230600 0.175000 -0.141380 0.295420 -4.339497 5.958336 5.948465 4.487479 6.108744 -6.305603 -111.847075 40.514935 -60.109519 1.950050 -1.849264 -0.053480 0.260170 0.018240 -0.001870 
0.365710 16.794240 -3.847150 5.734967 -4.202665 1.618945 -14.727119 13.007089 2.757096 23.843659 -0.531081 -9.964118 -2.226396 4.939550 5.742761 -0.220211 4.610432 3.108577 0.382050 0.253170 0.049760 18.680767 -10.802033 2.735388 -11.529489 4.624657 -29.077729 2.439739 -10.159095 45.350472 -0.726811 -6.885454 2.017995 0.150690 0.356800 0.187690 -4.733999 -1.006992 -7.221439 36.262558 -17.394162 17.053970 -26.875899 -10.240933 5.421048 10.800290 -14.818706 -8.828727 -28.381381 11.414227 22.630956 -9.202280 4.253200 -9.660360 -19.233232 1.198120 -0.009661 -36.892289 -1.347779 -3.494337 13.441003 -12.845402 -2.074455 -3.918605 3.017858 0.225030 0.200190 -0.135600 0.284180 -3.544301 7.493710 5.735371 4.309198 8.254422 -7.329959 -110.749479 33.736480 -51.493372 1.959283 -1.989090 -0.059770 0.256930 0.011770 -0.023940 
0.395420 16.782660 -3.841610 5.287236 -3.682022 1.787555 -14.772976 13.138048 2.823262 23.032115 -0.557338 -9.348171 -3.364953 5.133383 5.666717 -0.229230 4.712140 3.076249 0.349180 0.200210 0.063080 18.624360 -10.737125 2.703266 -10.438706 4.658066 -28.834358 1.348828 -9.518258 45.306371 -0.692191 -6.760413 2.057504 0.128760 0.350970 0.197860 -4.589183 -1.352123 -7.233292 36.441321 -17.333739 16.686867 -25.623897 -10.170914 5.899308 11.402597 -14.228583 -9.309944 -26.902489 10.652922 23.017737 -10.719000 5.084650 -9.220800 -20.409224 -0.655878 0.370703 -36.399174 -1.602228 -2.292641 11.587351 -6.498333 -1.221652 -4.005733 2.981394 0.230180 0.222000 -0.149660 0.247110 -3.460115 9.328605 6.108551 5.696860 8.971626 -8.627328 -113.112656 26.399962 -45.552461 1.963754 -2.125653 -0.076800 0.236890 0.039930 -0.056110 
0.431330 16.792740 -3.851570 4.952567 -3.306351 2.013405 -14.807547 13.255175 2.867853 21.921219 -0.573595 -9.447893 -5.062992 5.499319 6.543896 -0.246277 4.816371 3.046411 0.326980 0.150250 0.086720 18.576959 -10.701059 2.698290 -9.595754 4.698819 -28.684884 0.586368 -8.911493 44.774534 -0.651307 -6.578133 2.116048 0.110470 0.353910 0.209710 -4.473071 -1.608059 -7.240010 36.362328 -17.294481 16.520649 -24.176877 -10.175864 6.499898 11.764606 -13.770057 -9.774712 -25.687779 9.939555 23.158222 -12.085830 5.701270 -8.991530 -21.305256 -2.347735 0.965008 -36.916178 -0.960817 -1.909693 10.273846 -3.522424 -0.862991 -4.051261 2.957283 0.242130 0.240380 -0.158620 0.226210 -3.170615 11.154892 6.362027 6.150265 10.094773 -9.612161 -116.668225 19.544742 -40.162012 1.959710 -2.224405 -0.099100 0.229850 0.055020 -0.084020 
0.459020 16.827560 -3.876120 5.050103 -2.933092 1.649420 -14.848953 13.493109 2.920536 20.300498 -0.573529 -9.758966 -7.026645 6.089204 8.590795 -0.254375 4.955033 2.990997 0.302530 0.102140 0.080820 18.499421 -10.717764 2.639695 -9.108633 4.433514 -27.835635 -0.269153 -8.131857 43.607640 -0.593755 -6.279979 2.215182 0.085950 0.352510 0.216740 -4.304224 -2.014471 -7.245571 35.126463 -17.326972 17.718758 -22.416716 -10.305928 6.683025 12.126129 -13.601133 -10.476228 -25.449399 9.455692 23.582031 -12.521170 5.631160 -9.175520 -21.534453 -3.725408 1.340612 -38.015199 -0.753844 -1.728081 9.108774 -1.635798 -0.678625 -4.064298 2.938506 0.271440 0.233360 -0.158950 0.211130 -3.505694 13.096977 6.952187 8.290198 11.500559 -10.252308 -121.811973 13.265322 -35.979727 1.938726 -2.308310 -0.115010 0.228450 0.081190 -0.099260 
